<svg width="160" height="26" viewBox="0 0 160 26" fill="none" xmlns="http://www.w3.org/2000/svg">
<path fill-rule="evenodd" clip-rule="evenodd" d="M22.3116 21.7372C23.7023 20.4876 24.3977 18.6736 24.3977 16.2953C24.3977 14.2798 23.4705 12.7884 21.6163 11.8209C19.762 10.8333 16.7992 10.3395 12.7279 10.3395C11.0752 10.3395 9.80542 10.1985 8.9186 9.91628C8.05193 9.61395 7.6186 9.22093 7.6186 8.73721C7.6186 8.25349 7.931 7.8907 8.55581 7.64884C9.20077 7.38682 10.4403 7.25581 12.2744 7.25581C13.786 7.25581 15.5294 7.53798 17.5046 8.10233C19.5 8.64651 20.9915 9.33178 21.979 10.1581L22.3116 9.16047C22.5535 8.39458 22.8155 7.60853 23.0977 6.80233C23.3798 5.99612 23.6922 5.18992 24.0349 4.38372C21.6364 3.07364 18.9558 2.18682 15.993 1.72326V0H8.8279V1.60233C6.26821 1.96512 4.23255 2.79147 2.72093 4.0814C1.22946 5.35116 0.48372 7.10465 0.48372 9.34186C0.48372 11.2566 1.37054 12.6473 3.14418 13.514C4.91782 14.3605 7.76976 14.7837 11.7 14.7837C15.2876 14.7837 17.0814 15.3984 17.0814 16.6279C17.0814 16.9705 16.7488 17.293 16.0837 17.5953C15.4387 17.8775 14.3201 18.0186 12.7279 18.0186C11.1558 18.0186 9.46278 17.7868 7.64883 17.3233C5.83488 16.8597 4.25271 16.2147 2.90232 15.3884C2.49922 16.5574 2.07597 17.5853 1.63256 18.4721C1.2093 19.3589 0.665116 20.3163 0 21.3442C2.51938 22.6946 5.46201 23.5814 8.8279 24.0047V26H15.993V24.0651C18.8147 23.7628 20.9209 22.9868 22.3116 21.7372ZM90.0682 24.2464C85.4527 24.2464 82.0565 23.2487 79.8798 21.2534C77.7031 19.2379 76.6147 16.4162 76.6147 12.7883C76.6147 9.20066 77.693 6.39911 79.8496 4.38361C82.0263 2.3681 85.4325 1.36035 90.0682 1.36035C94.724 1.36035 98.1302 2.3681 100.287 4.38361C102.463 6.39911 103.552 9.20066 103.552 12.7883C103.552 16.4363 102.474 19.258 100.317 21.2534C98.1604 23.2487 94.7441 24.2464 90.0682 24.2464ZM90.0682 18.079C92.3054 18.079 93.9178 17.6557 94.9054 16.8092C95.893 15.9425 96.3868 14.6022 96.3868 12.7883C96.3868 11.0146 95.893 9.69446 94.9054 8.82779C93.9178 7.96113 92.3054 7.52779 90.0682 7.52779C87.8511 7.52779 86.2488 7.96113 85.2612 8.82779C84.2736 9.69446 83.7798 11.0146 83.7798 12.7883C83.7798 14.5821 84.2736 15.9123 85.2612 16.779C86.2488 17.6456 87.8511 18.079 90.0682 18.079ZM109.226 21.2534C111.403 23.2487 114.799 24.2464 119.415 24.2464C124.091 24.2464 127.507 23.2487 129.664 21.2534C131.82 19.258 132.899 16.4363 132.899 12.7883C132.899 9.20066 131.81 6.39911 129.633 4.38361C127.477 2.3681 124.071 1.36035 119.415 1.36035C114.779 1.36035 111.373 2.3681 109.196 4.38361C107.04 6.39911 105.961 9.20066 105.961 12.7883C105.961 16.4162 107.05 19.2379 109.226 21.2534ZM124.252 16.8092C123.264 17.6557 121.652 18.079 119.415 18.079C117.198 18.079 115.595 17.6456 114.608 16.779C113.62 15.9123 113.126 14.5821 113.126 12.7883C113.126 11.0146 113.62 9.69446 114.608 8.82779C115.595 7.96113 117.198 7.52779 119.415 7.52779C121.652 7.52779 123.264 7.96113 124.252 8.82779C125.24 9.69446 125.733 11.0146 125.733 12.7883C125.733 14.6022 125.24 15.9425 124.252 16.8092ZM157.408 4.17186C155.836 2.74085 153.045 2.02535 149.034 2.02535L142.746 1.99512H135.308C135.47 5.90519 135.55 9.56333 135.55 12.9695C135.55 16.3757 135.47 20.0339 135.308 23.944H142.746V18.623H149.034C151.795 18.623 153.962 18.2804 155.534 17.5951C157.106 16.8897 158.205 15.9222 158.829 14.6928C159.454 13.4432 159.767 11.9316 159.767 10.1579C159.767 7.57806 158.981 5.58271 157.408 4.17186ZM150.667 12.6067C149.84 12.7277 148.591 12.7881 146.918 12.7881H142.746V8.0114H146.918C148.631 8.0114 149.901 8.07186 150.727 8.19279C151.574 8.31372 152.148 8.5455 152.45 8.88814C152.773 9.21062 152.934 9.70442 152.934 10.3695C152.934 11.0347 152.763 11.5385 152.42 11.8812C152.098 12.2238 151.513 12.4657 150.667 12.6067ZM75.7106 17.5347C71.8811 17.6959 67.0439 17.7967 61.199 17.837V1.99512H53.8222C53.9835 5.90519 54.0641 9.56333 54.0641 12.9695C54.0641 16.3757 53.9835 20.0339 53.8222 23.944H75.1362C75.1362 22.5936 75.1664 21.4447 75.2269 20.4974C75.2873 19.5502 75.4486 18.5626 75.7106 17.5347ZM44.5239 13.03C49.1192 13.03 51.4169 14.4912 51.4169 17.4137C51.4169 18.7843 51.1045 19.9533 50.4797 20.9207C49.8549 21.868 48.7363 22.6137 47.1239 23.1579C45.5115 23.6819 43.2742 23.944 40.4122 23.944H26.8076C26.9688 20.0339 27.0495 16.3757 27.0495 12.9695C27.0495 9.56333 26.9688 5.90519 26.8076 1.99512H33.9122L40.3518 2.02535C42.851 2.02535 44.8161 2.23698 46.2471 2.66023C47.6983 3.06333 48.7161 3.65791 49.3006 4.44395C49.9052 5.23 50.2076 6.22768 50.2076 7.43698C50.2076 8.66643 49.7742 9.76488 48.9076 10.7323C48.0611 11.6796 46.5998 12.4455 44.5239 13.03ZM33.9122 7.52767V10.3393H39.7169C40.9665 10.3393 41.8332 10.2285 42.3169 10.0067C42.8208 9.78504 43.0727 9.38194 43.0727 8.79744C43.0727 8.33387 42.8107 8.01139 42.2867 7.83C41.7828 7.62845 40.9262 7.52767 39.7169 7.52767H33.9122ZM39.7169 18.4114C40.765 18.4114 41.5611 18.3711 42.1053 18.2905C42.6696 18.1897 43.0727 18.0285 43.3146 17.8067C43.5564 17.5649 43.6773 17.2424 43.6773 16.8393C43.6773 16.3153 43.3851 15.9424 42.8006 15.7207C42.2363 15.4788 41.2084 15.3579 39.7169 15.3579H33.9122V18.4114H39.7169Z" fill="#282828"/>
</svg>
